<svg width="16" height="14" viewBox="0 0 16 14" fill="none" xmlns="http://www.w3.org/2000/svg">
<path d="M6.64 13.7682C7.064 13.4142 7.122 12.7842 6.768 12.3602L3.135 8.00023L15 8.00023C15.552 8.00023 16 7.55224 16 7.00024C16 6.44824 15.552 6.00024 15 6.00024L3.135 6.00024L6.768 1.64023C7.122 1.21523 7.064 0.585235 6.64 0.232235C6.216 -0.121765 5.585 -0.0647651 5.232 0.360235L0.232 6.36023C0.192 6.40723 0.172999 6.46323 0.143 6.51523C0.118999 6.55623 0.0909996 6.59223 0.073 6.63723C0.0270004 6.75423 0 6.87624 0 7.00024C0 7.12424 0.0270004 7.24623 0.073 7.36323C0.0909996 7.40824 0.118999 7.44423 0.143 7.48523C0.172999 7.53723 0.192 7.59324 0.232 7.64023L5.232 13.6402C5.585 14.0642 6.216 14.1222 6.64 13.7682Z" fill="#0D1C2E"/>
</svg>
